<svg width="76" height="76" xmlns="http://www.w3.org/2000/svg" xmlns:xlink="http://www.w3.org/1999/xlink" xml:space="preserve" version="1.1">
 <g>
  <title>Layer 1</title>
  <ellipse id="svg_1" fill="#FFFFFF" clip-rule="evenodd" fill-rule="evenodd" ry="37.1" rx="36.7" cy="39.1" cx="36.7" class="st0"/>
  <g id="svg_17">
   <defs>
    <path d="m65.7,16.5c-4.5,2.8 -9.8,6 -12.7,9.4c-0.6,0.7 -1.2,1.5 -1.7,2.2c0,1.6 -1.2,2.9 -2.7,3.1c-0.1,1.2 -0.2,2.5 -0.2,3.6c-0.4,5.6 0.3,13.3 0.8,19c0,1.7 -1.4,3.1 -3.1,3.1s-3.1,-1.2 -3.1,-2.9c0.9,-3.3 1.8,-7.3 2.5,-11.1c-1.5,-1.6 -2.3,-2.1 -5.5,-1.3l6.8,-10.6c-0.1,-0.1 -0.2,-0.1 -0.3,-0.2c-1.3,1.4 -2.7,2.9 -4.1,4.3c-5.9,6.2 -16.2,19.9 -16.2,19.9s-1.8,2.3 -3.5,2.3c-1.7,0 -3.1,-1.4 -3.1,-3.1c0,-1.1 0.8,-2.4 2.5,-3.8c5.9,-4.4 10.7,-8.3 14.4,-11.5c0.5,-2.2 0.9,-3.5 -3.5,-5.2l12.3,-4.1c-0.1,-0.1 -0.1,-0.2 -0.2,-0.4c-3.4,0.4 -6.9,1.1 -10.3,1.7c-3.3,0.7 -8.8,2.1 -12.1,2.5c-1.7,0 -3.1,-1.4 -3.1,-3.1c0,-1.7 1.4,-3.1 3.1,-3.1c2.8,0.3 7,0.6 12.7,1c4.5,0.1 7.7,0.1 9.7,-0.2c0.2,-1.6 1.5,-2.8 3.1,-2.8c4,-3.4 8.6,-9.5 12.1,-14.4c-6.4,-5.5 -14.6,-8.8 -23.6,-8.8c-20.3,0 -36.7,16.6 -36.7,37.1c0,20.5 16.4,37.1 36.7,37.1c20.2,0 36.7,-16.6 36.7,-37.1c-0.1,-8.5 -2.9,-16.3 -7.7,-22.6" id="SVGID_75_"/>
   </defs>
   <use id="svg_18" fill="#00CB5B" clip-rule="evenodd" fill-rule="evenodd" xlink:href="#SVGID_75_"/>
   <clipPath id="SVGID_6_">
    <use id="svg_19" xlink:href="#SVGID_75_"/>
   </clipPath>
  </g>
 </g>
</svg>